# xmcd CD database file
#
# Track frame offsets:
#	150
#	25302
#	42755
#	67310
#	87690
#	110637
#	132270
#	153270
#	184462
#	204980
#	238810
#
# Disc length: 3480 seconds
#
# Revision: 0
# Processed by: cddbd v1.5.2PL0 Copyright (c) Steve Scherf et al.
# Submitted via: CDex 1.51
#
DISCID=a20d960b
DTITLE=Frank Rosolino - Free for all
DYEAR=1991
DGENRE=Jazz
TTITLE0=love for sale
TTITLE1=twilight
TTITLE2=don't take your love from me
TTITLE3=chrisdee
TTITLE4=stardust
TTITLE5=free for all
TTITLE6=there is no greater love
TTITLE7=sneakyoso
TTITLE8=chrisdee (toma alternativa)
TTITLE9=Don't take your love from me (toma alternativa)
TTITLE10=there is no greater love (toma alternativa)
EXTD=YEAR: 1991
EXTT0=
EXTT1=
EXTT2=
EXTT3=
EXTT4=
EXTT5=
EXTT6=
EXTT7=
EXTT8=
EXTT9=
EXTT10=
PLAYORDER=
